<?xml version="1.0" encoding="UTF-8"?>
<!DOCTYPE svg PUBLIC "-//W3C//DTD SVG 1.1//EN" "http://www.w3.org/Graphics/SVG/1.1/DTD/svg11.dtd">
<svg version="1.1" xmlns="http://www.w3.org/2000/svg" xmlns:xlink="http://www.w3.org/1999/xlink" x="0" y="0" width="328" height="624" viewBox="0, 0, 328, 624">
  <g id="Layer_1">
    <path d="M282.421,72.24 C283.804,72.728 285.176,73.276 286.528,73.899 L286.208,74.594 C268.213,66.296 246.638,70.682 238.702,72.777 C236.761,73.29 235.624,73.667 235.569,73.686 L235.382,73.142 L235.323,72.963 C235.376,72.945 236.461,72.584 238.328,72.087 C245.638,70.143 265.033,66.107 282.421,72.24 M171.54,126.716 L172.083,127.256 C171.79,127.548 152.625,146.976 138.985,172.368 C142.455,173.81 145.966,175.144 149.552,176.207 C159.283,151.907 172.983,132.259 173.218,131.925 L173.843,132.366 C173.609,132.698 159.971,152.26 150.281,176.423 C150.537,176.495 150.791,176.58 151.048,176.65 C155.226,177.809 159.496,178.659 163.796,178.918 C168.089,179.157 172.424,178.869 176.538,177.698 C180.654,176.571 184.534,174.64 187.947,172.064 C191.382,169.511 194.368,166.371 197.042,162.989 C199.74,159.615 202.092,155.963 204.458,152.303 C205.64,150.473 206.807,148.624 208.058,146.821 C209.321,145.029 210.627,143.241 212.217,141.68 C213.022,140.912 213.898,140.198 214.894,139.664 C215.884,139.13 217.016,138.808 218.148,138.846 C219.279,138.875 220.363,139.241 221.335,139.756 C222.309,140.282 223.157,140.985 223.978,141.7 C223.107,141.044 222.217,140.408 221.231,139.962 C220.255,139.512 219.201,139.22 218.147,139.251 C217.093,139.273 216.075,139.622 215.178,140.167 C214.277,140.712 213.482,141.43 212.752,142.206 C211.29,143.766 210.067,145.562 208.891,147.378 C207.725,149.205 206.598,151.068 205.469,152.935 C203.221,156.675 200.867,160.385 198.182,163.881 C195.487,167.363 192.419,170.611 188.861,173.288 C185.294,175.944 181.223,177.966 176.912,179.091 C172.603,180.232 168.103,180.491 163.71,180.103 C159.007,179.679 154.437,178.595 150.016,177.083 C143.288,194.046 138.567,213.195 141.802,229.526 L141.052,229.676 C137.79,213.199 142.535,193.911 149.299,176.84 C145.756,175.587 142.311,174.062 138.977,172.385 C131.93,185.508 126.357,200.222 125.631,214.713 L124.868,214.677 C127.015,171.839 171.095,127.162 171.54,126.716 M167.255,36.347 C166.289,33.895 165.557,31.332 165.292,28.699 C165.16,27.384 165.186,26.047 165.419,24.745 C165.64,23.444 166.177,22.179 167.035,21.188 C166.255,22.242 165.803,23.498 165.648,24.782 C165.476,26.067 165.544,27.369 165.703,28.653 C166.039,31.223 166.846,33.716 167.855,36.101 C168.852,38.494 170.11,40.781 171.57,42.919 C172.768,44.643 174.104,46.282 175.625,47.713 C175.193,46.394 174.92,45.034 174.741,43.674 C174.488,41.824 174.457,39.962 174.495,38.109 C174.553,36.258 174.683,34.406 174.967,32.577 C175.106,31.663 175.272,30.752 175.479,29.85 C175.585,29.4 175.695,28.949 175.843,28.51 C175.913,28.29 175.991,28.071 176.084,27.86 C176.177,27.655 176.271,27.415 176.477,27.302 C176.282,27.428 176.208,27.668 176.129,27.877 C176.05,28.093 175.988,28.314 175.933,28.537 C175.822,28.983 175.728,29.432 175.648,29.884 C175.488,30.79 175.372,31.701 175.28,32.616 C175.106,34.446 174.998,36.281 175.009,38.115 C175.016,39.948 175.148,41.778 175.395,43.585 C175.582,44.909 175.863,46.221 176.287,47.477 C176.207,46.571 176.194,45.659 176.256,44.747 C176.348,43.334 176.625,41.921 177.136,40.572 C177.676,39.245 178.494,37.948 179.727,37.118 C180.334,36.704 181.024,36.425 181.728,36.273 C182.436,36.136 183.154,36.135 183.849,36.22 C182.45,36.331 181.113,36.761 180.081,37.598 C179.047,38.432 178.343,39.606 177.848,40.853 C177.355,42.109 177.056,43.451 176.847,44.811 C176.692,45.898 176.591,47.001 176.53,48.113 C176.62,48.346 176.703,48.583 176.804,48.811 L177.403,50.155 L176.253,49.238 C174.162,47.573 172.433,45.524 170.966,43.329 C169.499,41.132 168.244,38.796 167.255,36.347 M110.969,147.754 L110.504,147.236 C122.186,134.534 164.507,114.806 166.598,113.836 L166.919,114.53 C166.406,114.768 122.357,135.296 110.969,147.754 M108.728,102.956 C106.392,103.661 104.069,104.405 101.822,105.324 C100.69,105.768 99.591,106.28 98.519,106.837 C97.443,107.384 96.42,108.03 95.475,108.762 C94.54,109.5 93.689,110.375 93.174,111.444 C92.624,112.495 92.538,113.768 92.892,114.948 C92.371,113.829 92.359,112.472 92.831,111.295 C93.311,110.114 94.165,109.138 95.098,108.31 C96.992,106.655 99.263,105.567 101.533,104.615 C103.829,103.698 106.186,102.966 108.577,102.39 C110.696,101.881 112.835,101.46 114.995,101.184 C113.096,100.568 111.114,100.151 109.129,99.822 C106.668,99.426 104.187,99.137 101.695,99.002 C99.202,98.854 96.7,98.857 94.213,99.04 C92.969,99.142 91.728,99.301 90.518,99.597 C89.913,99.744 89.317,99.937 88.753,100.196 C88.191,100.451 87.637,100.788 87.286,101.317 C87.611,100.771 88.156,100.398 88.711,100.112 C89.27,99.818 89.87,99.608 90.475,99.436 C91.686,99.091 92.933,98.884 94.183,98.736 C96.683,98.442 99.204,98.415 101.716,98.498 C104.229,98.587 106.741,98.796 109.231,99.176 C111.332,99.509 113.427,99.937 115.47,100.607 C114.555,99.482 113.494,98.451 112.393,97.477 C110.991,96.255 109.527,95.092 108.02,93.991 C105.004,91.786 101.837,89.78 98.571,87.957 C95.311,86.124 91.954,84.448 88.459,83.116 C86.708,82.466 84.93,81.872 83.095,81.522 C82.178,81.363 81.25,81.214 80.316,81.241 C79.392,81.264 78.438,81.372 77.605,81.826 C78.415,81.332 79.374,81.167 80.312,81.109 C81.257,81.046 82.2,81.163 83.134,81.29 C85.001,81.582 86.826,82.095 88.601,82.724 C92.152,83.993 95.579,85.586 98.887,87.385 C102.19,89.197 105.391,91.192 108.453,93.396 C109.98,94.501 111.481,95.65 112.891,96.915 C114.296,98.18 115.656,99.521 116.755,101.121 L117.406,102.067 L116.328,101.646 C115.942,101.497 115.549,101.37 115.157,101.24 C114.188,101.476 113.22,101.713 112.26,101.979 C111.077,102.282 109.897,102.606 108.728,102.956 M163.466,93.801 C161.568,93.225 159.648,92.91 157.751,92.996 C155.859,93.062 154.006,93.473 152.255,94.159 C150.511,94.862 148.833,95.737 147.255,96.793 C145.662,97.82 144.155,99.006 142.722,100.278 C141.259,101.519 139.876,102.863 138.545,104.263 C137.185,105.64 135.913,107.105 134.626,108.564 C132.095,111.523 129.673,114.595 127.288,117.75 C128.851,114.106 130.903,110.688 133.219,107.457 C135.547,104.234 138.183,101.203 141.218,98.548 C144.25,95.925 147.732,93.632 151.693,92.468 C153.659,91.87 155.76,91.672 157.791,91.878 C159.825,92.107 161.779,92.765 163.466,93.801 M128.468,83.836 C130.036,83.031 131.772,82.696 133.471,82.562 C136.885,82.335 140.256,82.801 143.5,83.591 C146.746,84.398 149.902,85.487 152.927,86.878 C154.441,87.565 155.916,88.347 157.341,89.211 C158.046,89.658 158.748,90.111 159.41,90.628 C160.062,91.139 160.733,91.692 161.173,92.406 C160.544,91.867 159.813,91.515 159.079,91.167 C158.341,90.826 157.597,90.502 156.837,90.211 C155.332,89.602 153.797,89.064 152.265,88.533 C150.722,88.035 149.191,87.511 147.634,87.073 C146.087,86.606 144.529,86.178 142.962,85.818 C139.836,85.07 136.675,84.462 133.521,84.35 C131.953,84.326 130.367,84.399 128.902,84.875 C127.434,85.319 126.1,86.24 125.249,87.686 C125.604,86.046 126.913,84.634 128.468,83.836 M190.471,69.802 C190.864,69.734 191.251,69.674 191.679,69.636 C191.894,69.614 192.127,69.61 192.376,69.628 C192.609,69.651 192.834,69.687 193.046,69.745 C193.893,69.971 194.668,70.341 195.321,70.926 C195.948,71.502 196.471,72.355 196.406,73.24 C196.365,74.111 195.931,74.822 195.433,75.393 C195.724,74.687 195.911,73.939 195.772,73.286 C195.651,72.632 195.187,72.147 194.635,71.819 C194.089,71.475 193.417,71.281 192.783,71.225 C192.625,71.205 192.471,71.217 192.329,71.216 C192.198,71.222 192.055,71.242 191.895,71.278 C191.574,71.345 191.222,71.442 190.879,71.545 C188.111,72.4 185.424,73.645 183.099,75.272 C181.926,76.076 180.872,77.021 179.977,78.083 L179.324,78.9 L178.692,79.805 C178.292,80.413 177.893,81.02 177.59,81.61 C177.449,81.899 177.337,82.194 177.304,82.4 C177.293,82.495 177.287,82.568 177.295,82.592 C177.299,82.623 177.29,82.66 177.357,82.718 C177.471,82.839 177.775,82.963 178.096,83.034 C178.422,83.109 178.778,83.152 179.139,83.192 C180.601,83.345 182.133,83.337 183.659,83.447 C182.174,83.84 180.696,84.15 179.133,84.311 C178.739,84.344 178.338,84.355 177.916,84.331 C177.494,84.297 177.036,84.254 176.516,83.955 C176.264,83.813 175.995,83.552 175.849,83.237 C175.69,82.919 175.662,82.602 175.657,82.322 C175.671,81.772 175.805,81.34 175.943,80.93 C176.233,80.129 176.596,79.422 176.991,78.747 L177.587,77.747 L178.279,76.739 C179.269,75.437 180.484,74.343 181.776,73.401 C184.402,71.553 187.379,70.398 190.471,69.802 M188.39,59.712 C188.494,57.33 188.899,54.93 189.773,52.607 C190.231,51.455 190.822,50.316 191.659,49.302 C192.489,48.301 193.618,47.411 194.942,47.039 C196.257,46.632 197.626,46.776 198.803,47.157 C200,47.54 201.016,48.22 201.938,48.959 C200.779,48.67 199.684,48.299 198.574,48.259 C197.483,48.167 196.437,48.307 195.56,48.719 C193.803,49.557 192.706,51.432 191.909,53.44 C191.132,55.48 190.611,57.684 190.161,59.925 C189.726,62.173 189.362,64.458 188.945,66.794 C188.414,64.471 188.28,62.09 188.39,59.712 M206.47,51.744 C207.827,51.716 209.185,51.955 210.413,52.454 C211.634,52.971 212.736,53.683 213.66,54.564 C212.46,54.112 211.295,53.718 210.108,53.538 C208.928,53.329 207.747,53.365 206.611,53.527 C204.333,53.895 202.207,54.908 200.26,56.251 C198.311,57.597 196.526,59.237 194.833,60.996 C193.999,61.887 193.173,62.801 192.398,63.762 C191.614,64.721 190.832,65.686 190.219,66.794 C190.357,65.504 190.915,64.312 191.456,63.156 C192.036,62.011 192.698,60.904 193.458,59.863 C194.958,57.766 196.79,55.873 198.961,54.362 C201.122,52.867 203.736,51.777 206.47,51.744 M192.345,75.481 C192.214,75.021 191.986,74.626 191.644,74.326 C191.314,74.014 190.879,73.795 190.416,73.655 C189.945,73.53 189.448,73.466 188.928,73.673 C189.258,73.194 189.934,73.022 190.51,73.069 C191.105,73.107 191.692,73.347 192.159,73.76 C192.619,74.178 192.914,74.79 192.936,75.397 C192.969,76.007 192.749,76.565 192.449,77.028 C192.447,76.463 192.472,75.948 192.345,75.481 M182.704,79.788 C182.454,79.47 182.25,79.107 182.152,78.682 C182.062,78.269 182.11,77.736 182.448,77.36 C182.765,76.973 183.24,76.794 183.682,76.726 C184.132,76.662 184.579,76.712 185.002,76.822 C185.843,77.063 186.61,77.605 187.045,78.368 C187.502,79.124 187.545,80.046 187.289,80.807 C187.226,80.001 187.006,79.26 186.55,78.701 C186.104,78.144 185.479,77.743 184.797,77.558 C184.135,77.367 183.344,77.366 182.881,77.767 C182.395,78.166 182.479,79.032 182.704,79.788 M208.432,96.044 C211.548,96.008 214.734,96.498 217.706,97.682 C220.684,98.835 223.417,100.717 225.512,103.112 C227.604,105.511 229.054,108.385 229.711,111.38 C227.883,108.911 226.017,106.648 223.821,104.82 C221.643,102.984 219.21,101.552 216.585,100.527 C213.969,99.479 211.168,98.835 208.291,98.436 C205.805,98.088 203.264,97.933 200.652,97.894 C200.539,98.386 200.377,98.858 200.201,99.257 C199.868,100.043 199.487,100.743 199.109,101.446 C198.348,102.844 197.558,104.194 196.771,105.542 C195.176,108.22 193.544,110.854 192.002,113.532 C190.415,116.181 188.899,118.865 187.474,121.584 C186.016,124.287 184.707,127.059 183.542,129.874 C182.975,131.287 182.448,132.719 182.012,134.169 C181.542,135.615 181.213,137.092 180.964,138.583 C180.718,140.075 180.643,141.585 180.724,143.103 C180.859,144.612 181.202,146.111 181.812,147.559 C180.904,146.281 180.278,144.793 179.886,143.232 C179.542,141.667 179.432,140.05 179.469,138.443 C179.605,135.229 180.327,132.084 181.299,129.061 C182.244,126.02 183.548,123.13 184.89,120.278 C186.275,117.444 187.802,114.694 189.37,111.98 C190.985,109.295 192.639,106.643 194.313,104.026 C195.158,102.725 196,101.424 196.789,100.122 C197.18,99.475 197.561,98.815 197.879,98.189 C198.208,97.552 198.389,97.066 198.44,96.437 C198.561,95.187 198.147,93.764 197.631,92.4 C197.093,91.025 196.379,89.682 195.59,88.375 C194.024,85.744 192.166,83.25 190.219,80.807 C192.651,82.782 194.847,85.042 196.822,87.53 C197.793,88.787 198.688,90.121 199.449,91.576 C200.18,93.039 200.809,94.649 200.815,96.53 C200.82,96.797 200.794,97.07 200.754,97.343 C203.2,96.48 205.812,96.101 208.432,96.044 M324.872,566.297 C313.407,520.435 241.129,526.637 214.423,525.976 C209.607,525.857 198.945,512.236 198.945,512.236 C198.945,512.236 124.995,544.131 60.279,511.39 C38.542,500.394 29.444,481.9 25.677,467.121 C31.481,478.435 38.761,488.162 47.795,495.594 C95.185,534.576 158.117,520.562 197.863,506.804 C197.863,506.804 179.264,482.219 165.25,423.744 C155.466,382.924 131.11,318.248 124.346,312.914 C160.156,330.496 178.499,506.678 219.01,521.963 C223.596,523.111 257.736,525.023 263.597,521.39 C267.809,518.781 267.282,515.808 266.652,514.344 C266.434,514.17 266.199,514.01 265.944,513.869 C264.993,513.33 263.874,513.002 262.737,512.791 C260.45,512.369 258.062,512.359 255.699,512.506 C258.035,512.109 260.418,511.853 262.837,512.031 C264.044,512.129 265.269,512.334 266.451,512.84 C266.461,512.845 266.471,512.851 266.482,512.853 C266.699,511.703 266.082,509.07 264.375,506.625 C263.96,506.316 263.474,506.054 262.953,505.851 C262.094,505.517 261.157,505.301 260.203,505.174 C258.292,504.904 256.318,504.892 254.361,505.053 C256.285,504.638 258.254,504.392 260.26,504.41 C261.049,504.416 261.845,504.476 262.643,504.623 C261.589,503.637 260.302,502.783 258.755,502.219 C254.743,500.756 247.163,499.416 247.163,499.416 C241.558,499.416 235.443,487.76 228.946,442.09 C227.416,431.334 228.583,419.201 231.48,406.428 C230.78,413.984 230.534,421.588 230.721,429.178 C230.862,433.418 231.11,437.652 231.492,441.883 C231.941,446.105 232.431,450.324 233.166,454.513 C233.889,458.646 234.586,462.713 235.402,466.834 C236.197,470.947 237.059,475.08 238.182,479.23 C238.737,481.31 239.369,483.392 240.154,485.47 C240.939,487.549 241.835,489.642 243.114,491.668 C244.365,493.679 246.072,495.676 248.351,497.072 C249.49,497.76 250.759,498.24 252.025,498.517 L252.5,498.619 L252.894,498.685 L253.657,498.806 L255.161,499.054 C259.147,499.713 262.705,500.654 264.945,503.726 C266.1,505.211 266.923,507.062 267.574,508.99 C268.247,510.918 268.721,512.945 269.17,514.99 C269.304,510.828 269.219,506.506 267.22,502.332 C266.231,500.254 264.484,498.406 262.474,497.17 C260.458,495.926 258.328,495.158 256.289,494.5 L254.762,494.029 L254.007,493.801 L253.643,493.689 L253.368,493.588 C252.631,493.32 251.975,492.955 251.382,492.496 C250.208,491.56 249.239,490.23 248.475,488.623 C246.904,485.424 246.046,481.506 245.274,477.595 C243.852,469.691 242.886,461.406 241.773,453.215 C240.717,445.17 240.11,437.056 239.887,428.933 C239.475,412.681 240.504,396.351 243.252,380.287 C244.623,372.254 246.469,364.299 248.96,356.519 C249.094,356.101 249.239,355.683 249.376,355.265 C265.751,318.009 286.212,283.095 289.584,266.798 C295.7,237.244 254.807,134.248 244.615,118.96 C244.615,118.96 244.438,110.301 243.208,99.511 C232.46,96.75 224.135,95.484 223.921,95.452 L224.034,94.697 C224.839,94.816 232.144,95.926 241.704,98.274 C241.59,98.277 241.508,98.282 241.497,98.282 L241.545,99.045 C241.6,99.041 242.806,98.978 244.901,99.085 C252.693,99.483 272.905,102.257 292.903,119.441 L293.401,118.862 C271.368,99.929 249.046,98.331 243.064,98.262 C242.733,95.501 242.334,92.622 241.851,89.725 C230.292,90.065 221.586,91.576 221.37,91.615 L221.236,90.863 C221.441,90.825 229.238,89.469 239.89,89.035 L239.987,89.606 C240.08,89.59 242.744,89.162 246.924,88.905 C257.708,88.24 278.592,88.711 291.559,100.327 L292.069,99.758 C276.234,85.574 248.894,87.74 241.66,88.608 C241.359,86.88 241.029,85.153 240.667,83.447 C240.533,82.823 240.351,82.192 240.133,81.556 C227.147,84.271 217.589,88.189 217.374,88.279 L217.08,87.573 C217.295,87.483 226.837,83.573 239.837,80.847 L240.024,81.53 C240.305,81.452 266.438,74.541 283.11,81.941 C284.482,82.551 285.792,83.256 287.016,84.071 L287.346,83.575 L287.44,83.434 C286.178,82.594 284.831,81.869 283.417,81.243 C266.681,73.829 240.76,80.544 239.849,80.784 C238.952,78.491 237.554,76.144 235.808,73.804 C227.928,76.786 221.618,80.67 216.647,83.735 C215.003,84.749 213.45,85.707 212.064,86.49 L211.688,85.824 C213.061,85.048 214.608,84.094 216.247,83.085 C221.206,80.027 227.489,76.16 235.322,73.165 C234.146,71.644 232.831,70.127 231.42,68.633 C219.118,74.62 209.637,82.148 208.092,83.998 L207.506,83.507 C208.833,81.919 218.024,74.448 230.247,68.335 C230.09,68.425 229.99,68.485 229.977,68.493 L230.378,69.144 C230.487,69.076 235.413,66.107 243.252,63.818 C250.419,61.726 260.024,60.207 270.626,61.996 C272.529,62.317 274.464,62.756 276.422,63.306 C278.612,63.922 280.829,64.674 283.067,65.616 L283.364,64.913 C279.236,63.172 275.171,62.032 271.236,61.333 C259.387,59.231 248.729,61.227 241.215,63.646 C236.058,65.307 232.393,67.156 230.828,68.011 C219.267,56.034 201.938,45.646 201.938,45.646 C201.938,45.646 175.697,22.462 161.173,1.824 C157.351,2.843 157.351,36.729 161.173,50.742 C153.785,51.507 124.995,67.303 116.587,85.138 C107.415,83.354 77.859,67.558 64.866,71.38 C78.114,114.438 100.536,135.075 107.924,143.483 C108.656,145.028 109.258,146.477 109.781,147.858 C106.307,151.105 90.667,166.257 84.132,181.807 L84.836,182.104 C90.384,168.902 102.581,155.967 108.133,150.502 C109.38,149.275 110.295,148.42 110.721,148.029 C110.506,148.272 110.303,148.512 110.115,148.748 C112.305,154.784 113,159.392 115.782,163.884 C110.588,170.163 96.491,188.434 96.65,201.579 L97.414,201.57 C97.291,191.438 106.164,177.79 112.361,169.51 C115.625,165.148 118.149,162.274 118.221,162.193 L117.648,161.686 C117.606,161.733 117.507,161.848 117.376,161.998 C132.542,142.691 166.249,118.737 168.087,117.438 L168.529,118.062 C168.06,118.393 130.603,145.007 116.313,164.703 C118.005,167.193 120.416,169.675 124.149,172.37 C139.006,149.287 167.822,123.383 169.455,121.924 L169.963,122.495 C169.564,122.853 139.908,149.507 124.821,172.847 C126.09,173.733 127.492,174.643 129.071,175.586 C129.326,179.153 117.605,195.714 117.352,208.199 C114.455,208.593 111.557,209.008 108.663,209.454 C110.184,201.532 113.523,193.437 116.869,186.729 C121.369,177.701 125.879,171.193 125.972,171.059 L125.347,170.621 C125.297,170.691 124.031,172.517 122.188,175.541 C117.86,182.639 110.344,196.359 107.866,209.578 C63.324,216.541 20.384,231.15 11.106,290.749 C3.959,336.656 1.558,402.34 18.41,450.101 C6.062,467.699 -17.745,518.24 24.609,551.646 C60.789,580.183 135.686,592.562 215.617,566.574 C269.285,549.127 306.857,591.679 289.199,620.373 C294.68,627.826 338.121,619.293 324.872,566.297" fill="#0B0B09"/>
  </g>
</svg>
